<svg width="210" height="100" viewBox="0 0 210 100" fill="none" xmlns="http://www.w3.org/2000/svg">
<path d="M39.9854 42.1359C33.2359 34.2888 23.2195 35.717 18.583 40.3441C13.1069 45.8085 12.7622 54.7719 17.6426 60.4731C22.7176 66.4018 32.6238 67.6049 39.8025 60.1424C40.1214 60.3183 39.9807 60.6255 39.983 60.8694C39.9924 65.5575 39.9877 70.2456 39.9924 74.9336C39.9924 75.4472 40.0299 75.9069 39.378 76.1461C34.1317 78.0551 28.78 79.1222 23.1843 78.2029C11.8147 76.3384 2.82553 67.6846 0.581168 56.4768C-2.52389 41.0078 7.0985 26.7044 22.6308 23.7987C28.3954 22.7199 33.9746 23.6134 39.3756 25.8062C39.7321 25.9492 39.9877 26.1017 39.9877 26.5402C39.983 31.6434 39.9854 36.7489 39.9854 42.1359Z" fill="white"/>
<path d="M69.993 64.4024C69.993 60.6524 69.9601 56.9025 70.0164 53.1525C70.0305 52.2074 69.735 51.9001 68.8298 52.0033C68.2904 52.0643 67.7322 51.9634 67.1928 52.0244C66.1656 52.144 65.7552 51.8438 65.7951 50.7041C65.8842 48.0118 65.856 45.3148 65.8044 42.6201C65.788 41.7336 66.0718 41.4264 66.9442 41.5132C67.6009 41.5789 68.2763 41.478 68.9329 41.539C69.7467 41.614 70.0094 41.3326 69.9953 40.4977C69.9484 37.6483 70.0117 34.7942 69.9555 31.9447C69.939 31.0629 70.1994 30.8073 71.0741 30.819C74.5497 30.8636 78.0277 30.8589 81.5033 30.8214C82.3241 30.812 82.5797 31.063 82.568 31.8838C82.5258 34.6957 82.5821 37.5076 82.5328 40.3195C82.5164 41.2107 82.7298 41.5695 83.6937 41.5273C85.3705 41.4499 87.052 41.5343 88.7312 41.4921C89.4441 41.4733 89.6787 41.7008 89.6693 42.4231C89.6341 45.3124 89.6365 48.2041 89.6669 51.0934C89.674 51.7758 89.4277 51.9681 88.7805 51.9541C87.1787 51.9212 85.5699 52.0362 83.9775 51.9142C82.7251 51.818 82.5164 52.2847 82.5234 53.4245C82.575 60.8448 82.5281 68.2673 82.5727 75.6876C82.5797 76.7429 82.3311 77.0877 81.2265 77.0642C77.8307 76.9892 74.4301 77.015 71.0319 77.0525C70.2205 77.0619 69.9648 76.825 69.9719 75.9995C70.0164 72.1346 69.9953 68.2673 69.993 64.4024Z" fill="white"/>
<path d="M110.285 64.5241C110.285 68.314 110.254 72.1038 110.306 75.8913C110.32 76.8341 110.025 77.071 109.117 77.0569C105.719 77.0077 102.321 77.003 98.9223 77.0593C97.9584 77.0757 97.6676 76.813 97.6746 75.8257C97.7145 68.3257 97.6723 60.8257 97.7239 53.3257C97.7309 52.2118 97.3862 51.9679 96.3473 51.989C93.5963 52.0499 93.594 52.0054 93.594 49.292C93.594 47.0265 93.6245 44.761 93.5776 42.4956C93.5612 41.7169 93.8215 41.4144 94.579 41.5199C94.6939 41.5364 94.8135 41.5223 94.9308 41.5223C97.6981 41.5153 97.6981 41.5153 97.6981 38.6916C97.6981 36.3863 97.7192 34.0809 97.6864 31.778C97.677 31.0767 97.8857 30.8164 98.6151 30.8211C102.208 30.8492 105.803 30.8516 109.396 30.8211C110.144 30.8141 110.306 31.1143 110.299 31.7944C110.268 34.6837 110.315 37.5753 110.268 40.4669C110.254 41.2901 110.503 41.5481 111.324 41.5199C113.001 41.4637 114.684 41.534 116.361 41.4895C117.105 41.4684 117.393 41.6677 117.381 42.4651C117.339 45.3168 117.346 48.1686 117.379 51.0204C117.388 51.7357 117.161 51.9749 116.446 51.9585C114.767 51.9163 113.085 51.9866 111.408 51.928C110.548 51.8975 110.268 52.1461 110.28 53.042C110.329 56.8693 110.301 60.6967 110.301 64.5265C110.294 64.5241 110.29 64.5241 110.285 64.5241Z" fill="white"/>
<path d="M183.975 64.4999C183.975 68.3273 183.951 72.1547 183.994 75.9821C184.003 76.8146 183.738 77.0327 182.931 77.0234C179.456 76.9835 175.98 76.9671 172.505 77.0304C171.527 77.0491 171.358 76.6997 171.36 75.8249C171.388 68.3273 171.353 60.8273 171.402 53.3297C171.409 52.2392 171.097 51.9554 170.035 51.9812C167.291 52.0469 167.289 51.9976 167.289 49.2936C167.289 46.9883 167.308 44.6853 167.277 42.3799C167.268 41.7256 167.467 41.4231 168.14 41.5145C168.217 41.5239 168.297 41.5216 168.375 41.5145C169.334 41.4231 170.584 41.9484 171.179 41.2753C171.752 40.6281 171.339 39.4015 171.348 38.4306C171.372 36.205 171.379 33.977 171.344 31.7514C171.332 31.0315 171.576 30.8063 172.289 30.8134C175.842 30.8415 179.397 30.8509 182.95 30.8087C183.808 30.7993 183.987 31.1276 183.975 31.9062C183.937 34.7557 183.984 37.6074 183.944 40.4592C183.933 41.2566 184.134 41.5638 184.983 41.5333C186.7 41.4723 188.421 41.5474 190.138 41.5005C190.872 41.4817 191.065 41.7491 191.057 42.4456C191.027 45.2974 191.015 48.1468 191.062 50.9986C191.076 51.8241 190.736 51.9648 190.026 51.946C188.464 51.9062 186.899 51.9906 185.34 51.9132C184.308 51.8616 183.923 52.1172 183.947 53.2476C184.022 57 183.975 60.7523 183.975 64.4999Z" fill="white"/>
<path d="M47.4584 59.25C47.4584 53.7434 47.4748 48.2369 47.442 42.7303C47.4373 41.8696 47.5804 41.4991 48.5724 41.5178C52.0081 41.5835 55.4462 41.5694 58.8819 41.5249C59.7168 41.5131 59.9185 41.7711 59.9185 42.5802C59.8927 53.7106 59.8951 64.8386 59.9162 75.969C59.9185 76.7335 59.7966 77.0712 58.9148 77.0595C55.4392 77.0079 51.9636 77.0149 48.488 77.0571C47.6671 77.0665 47.4373 76.8179 47.442 76.0041C47.4748 70.4178 47.4584 64.8339 47.4584 59.25Z" fill="white"/>
<path d="M196.819 59.2465C196.819 53.7001 196.838 48.156 196.798 42.6096C196.791 41.7301 197.03 41.4886 197.907 41.5003C201.383 41.5495 204.858 41.5425 208.334 41.505C209.108 41.4956 209.319 41.7348 209.316 42.497C209.295 53.6672 209.293 64.8351 209.319 76.0053C209.321 76.8262 209.087 77.0607 208.268 77.0513C204.792 77.0091 201.317 77.0091 197.841 77.0513C197.016 77.0607 196.793 76.8144 196.798 76.0007C196.835 70.4167 196.819 64.8328 196.819 59.2465Z" fill="white"/>
<path d="M166.237 4.10454C157.077 1.95164 147.79 0.832972 138.423 0.209147C133.636 -0.168511 125.795 0.0502257 122.473 0.206801C119.091 0.410835 115.709 0.565619 112.335 0.882222C108.458 1.24573 104.603 1.76168 100.778 2.43944C95.8737 3.30717 91.0191 4.42583 86.2255 5.81185C75.5149 8.90753 65.3859 13.2743 56.045 19.3977C54.7621 20.2372 54.4033 20.9127 54.9709 21.581C55.8198 22.5778 56.6969 21.9164 57.4591 21.4216C61.4882 18.802 65.6768 16.4896 70.0318 14.4422C76.8001 11.2598 83.8404 8.8747 91.0683 7.02433C96.4998 5.63596 102.009 4.66036 107.569 3.9052C112.94 3.17349 118.329 2.73494 123.735 2.59422C131.692 2.38785 139.64 2.58484 147.569 3.45961C152.562 4.00839 157.518 4.75651 162.431 5.77433C168.195 6.96804 173.857 8.54402 179.401 10.5351C185.069 12.5707 190.536 15.0449 195.801 17.9718C197.883 19.1303 199.903 20.3803 201.877 21.7077C202.351 22.0243 202.888 22.1978 203.409 21.832C203.798 21.5599 204.122 21.1824 203.981 20.6523C203.824 20.059 203.404 19.665 202.89 19.3367C199.966 17.4605 196.973 15.6946 193.88 14.1162C185.085 9.62751 175.85 6.36532 166.237 4.10454Z" fill="#EA7400"/>
<path d="M60.6306 31.7634C60.6142 35.7127 57.5842 38.7545 53.6794 38.7451C49.8427 38.7357 46.7259 35.6353 46.7493 31.8525C46.7751 27.8868 49.8685 24.8333 53.8389 24.8521C57.5561 24.8708 60.647 28.0158 60.6306 31.7634Z" fill="#EA7400"/>
<path d="M209.999 31.7634C209.982 35.7127 206.952 38.7545 203.048 38.7451C199.211 38.7357 196.094 35.6353 196.117 31.8525C196.143 27.8868 199.237 24.8333 203.207 24.8521C206.924 24.8708 210.015 28.0158 209.999 31.7634Z" fill="#EA7400"/>
<path d="M88.3117 94.1229C89.2709 91.4728 90.1926 89.1065 90.9712 86.6956C91.405 85.3518 92.4135 85.8912 93.1968 85.8724C94.0364 85.8537 93.6564 86.6346 93.6611 87.045C93.7034 89.8194 93.6869 92.5915 93.701 95.3659C93.7034 95.9029 93.7432 96.3415 92.9505 96.3485C92.125 96.3579 92.1016 95.9311 92.1063 95.319C92.125 93.03 92.1133 90.7411 91.8788 88.4123C91.0626 90.6684 90.2512 92.9245 89.428 95.1759C89.2357 95.7012 89.1982 96.3579 88.3657 96.3532C87.5073 96.3485 87.2822 95.7692 87.0547 95.1079C86.2948 92.8776 85.5068 90.6543 84.4984 88.4827C84.4984 90.7341 84.4914 92.9831 84.5031 95.2345C84.5054 95.8138 84.5477 96.3063 83.6917 96.2805C82.8403 96.2547 83.0209 95.6989 83.0186 95.2275C83.0092 92.493 82.9998 89.7585 83.0303 87.0239C83.035 86.6041 82.6902 85.8513 83.5345 85.8607C84.3014 85.8701 85.277 85.3917 85.6804 86.644C86.3488 88.7242 87.1039 90.7739 87.8239 92.8354C87.9482 93.1989 88.0936 93.5507 88.3117 94.1229Z" fill="white"/>
<path d="M161.891 92.3216C161.891 91.3061 161.879 90.2907 161.898 89.2752C161.905 88.9562 161.746 88.5247 162.25 88.4075C162.653 88.316 163.071 88.3324 163.256 88.7686C163.453 89.2306 163.631 89.0923 163.943 88.8835C165.329 87.9478 166.708 87.8681 167.986 89.0735C168.326 89.3948 168.472 89.24 168.732 89.0031C169.541 88.2691 170.522 88.0463 171.565 88.2714C172.543 88.4849 173.273 89.0125 173.411 90.1171C173.648 91.9886 173.432 93.8624 173.458 95.7339C173.467 96.4234 172.984 96.3085 172.567 96.3249C172.1 96.3413 171.727 96.3085 171.741 95.6612C171.772 94.2564 171.743 92.8493 171.753 91.4445C171.758 90.5322 171.507 89.8052 170.468 89.6692C169.518 89.5449 168.819 90.1007 168.617 91.1983C168.362 92.5913 168.523 94.0031 168.521 95.4056C168.519 96.0528 168.35 96.2921 167.67 96.2874C166.994 96.2827 166.793 96.0458 166.809 95.3938C166.842 94.0289 166.809 92.6617 166.8 91.2944C166.793 90.4243 166.521 89.7184 165.524 89.6528C164.53 89.5848 163.91 90.0374 163.716 91.0716C163.446 92.5092 163.563 93.9539 163.563 95.3938C163.563 96.0411 163.383 96.2803 162.705 96.285C161.99 96.2921 161.861 95.9801 161.882 95.3657C161.917 94.3526 161.891 93.3371 161.891 92.3216Z" fill="white"/>
<path d="M205.476 94.2308C206.034 92.629 206.527 91.2055 207.028 89.7843C207.558 88.2834 207.561 88.2857 209.27 88.5296C208.06 91.7918 206.963 95.0774 205.516 98.2223C204.904 99.5497 203.665 99.9789 202.258 99.7139C201.836 99.6342 201.768 99.4231 201.777 99.076C201.784 98.7477 201.808 98.5249 202.244 98.4287C204.435 97.955 204.915 97.031 204.099 94.9813C203.379 93.1708 202.629 91.3696 201.953 89.5427C201.834 89.2214 201.135 88.675 201.918 88.4569C202.495 88.2951 203.316 88.0864 203.625 89.1159C204.064 90.5699 204.608 91.9911 205.112 93.4264C205.187 93.6351 205.295 93.8321 205.476 94.2308Z" fill="white"/>
<path d="M148.389 96.4358C145.312 96.4569 143.659 94.9771 143.328 92.1112C142.997 89.2477 143.931 87.1159 145.999 86.1403C147.493 85.4368 149.029 85.5376 150.561 86.0629C150.978 86.206 151.281 86.3866 151.006 86.9002C150.8 87.2871 150.765 87.8805 150.056 87.5521C146.757 86.0254 144.559 88.652 145.202 92.1933C145.577 94.2594 146.869 95.2116 148.956 94.9091C149.304 94.8575 149.648 94.7707 149.998 94.7496C150.289 94.7308 150.736 94.3368 150.823 94.9607C150.891 95.4485 150.983 96.0043 150.246 96.152C149.554 96.2951 148.877 96.4897 148.389 96.4358Z" fill="white"/>
<path d="M195.008 89.3581C195.864 88.6217 196.65 88.23 197.602 88.2558C199.352 88.3027 200.283 89.1775 200.339 90.9247C200.388 92.4467 200.332 93.9711 200.381 95.4931C200.405 96.2037 200.081 96.328 199.469 96.3421C198.841 96.3562 198.665 96.117 198.676 95.5213C198.705 94.1564 198.676 92.7891 198.665 91.4219C198.658 90.4369 198.278 89.7263 197.201 89.6723C196.183 89.6207 195.475 90.0593 195.238 91.117C194.936 92.4678 195.055 93.8374 195.053 95.2023C195.053 95.7558 195.248 96.3773 194.258 96.3843C193.339 96.389 193.383 95.8848 193.388 95.2633C193.402 93.3895 193.374 91.5133 193.407 89.6395C193.414 89.2361 193.114 88.6545 193.826 88.481C194.495 88.3121 194.854 88.6404 195.008 89.3581Z" fill="white"/>
<path d="M122.019 88.5753C124.437 87.7943 124.505 90.102 125.626 90.951C126.735 90.0997 126.759 87.7591 129.214 88.5471C128.522 89.5743 127.896 90.5851 127.183 91.5302C126.784 92.0602 126.78 92.4449 127.174 92.9749C127.931 93.9927 128.616 95.0645 129.359 96.155C127.992 96.6569 127.312 96.0659 126.7 95.048C125.621 93.2516 125.52 93.2493 124.493 95.1161C123.909 96.1784 123.17 96.5865 121.831 96.2206C122.544 95.2075 123.196 94.2131 123.921 93.2727C124.456 92.5785 124.481 92.0063 123.914 91.3027C123.238 90.4585 122.676 89.5298 122.019 88.5753Z" fill="white"/>
<path d="M126.519 44.4904C132.251 39.3498 141.139 38.9889 147.011 43.4025C147.565 43.8153 148.074 44.2885 148.801 44.9006C148.801 44.0284 148.855 43.402 148.789 42.7853C148.691 41.8522 148.958 41.4932 149.985 41.5119C153.423 41.5776 156.863 41.5752 160.301 41.5119C161.279 41.4931 161.448 41.8385 161.446 42.718C161.42 53.738 161.418 64.7604 161.449 75.7805C161.451 76.7091 161.272 77.0746 160.247 77.0558C156.809 76.9925 153.369 77.0017 149.931 77.051C149.049 77.0627 148.737 76.8121 148.817 75.9279C148.887 75.1565 148.831 74.3733 148.831 73.3322C148.093 74.024 147.546 74.6003 146.934 75.0998C142.731 78.5214 137.912 78.9061 132.966 77.4826C126.174 75.5244 122.07 70.8081 120.562 63.9719C118.895 56.4134 120.679 49.7272 126.519 44.4904ZM141.21 51.2141C136.766 51.1601 133.084 54.7578 133.079 59.1574C133.075 63.7468 136.571 67.3324 141.072 67.3537C145.506 67.3748 149.215 63.7822 149.257 59.425C149.299 54.9761 145.666 51.2703 141.21 51.2141Z" fill="white"/>
<path d="M179.641 88.2247C181.794 88.1192 183.077 89.7843 183 92.6124C182.929 95.1546 181.534 96.6446 179.454 96.4523C178.757 96.3889 178.244 95.9645 177.442 95.6105C177.442 96.7172 177.448 97.6462 177.439 98.5724C177.434 99.1258 177.638 99.7329 176.644 99.7423C175.713 99.7516 175.776 99.2516 175.779 98.6349C175.791 95.5887 175.774 92.5424 175.795 89.4962C175.798 89.0975 175.519 88.518 176.302 88.4171C176.984 88.3305 177.331 88.6123 177.432 89.3204C178.131 88.7858 178.764 88.2694 179.641 88.2247ZM179.356 89.6603C178.681 89.7471 177.988 89.8758 177.751 90.6193C177.376 91.7965 177.374 92.993 177.833 94.1632C178.038 94.6859 178.443 94.9391 178.985 95.0236C180.415 95.244 181.461 93.9425 181.292 92.1368C181.142 90.5164 180.458 89.6393 179.356 89.6603Z" fill="white"/>
<path d="M111.106 85.2098C111.681 85.2192 111.951 85.3623 111.946 86.0048C111.923 89.1684 111.936 92.3323 111.931 95.496C111.931 95.8266 112.039 96.2631 111.509 96.3007C111.141 96.3264 110.686 96.4667 110.51 95.9559C110.332 95.4378 110.135 95.58 109.774 95.8143C107.553 97.2495 105.384 96.2887 104.875 93.7069C104.673 92.6845 104.682 91.6898 104.945 90.6932C105.515 88.5334 107.583 87.6515 109.52 88.7372C109.72 88.845 109.903 88.9828 110.295 89.243C110.295 88.0192 110.325 87.0086 110.283 86.0028C110.255 85.3649 110.517 85.2005 111.106 85.2098ZM108.964 89.7723C107.46 89.3504 106.511 90.3708 106.508 92.5516C106.52 92.6854 106.523 92.9624 106.567 93.2343C106.778 94.5379 107.33 95.0821 108.423 95.0868C109.571 95.0914 110.113 94.5279 110.292 93.1444C110.388 92.3988 110.299 91.6742 110.128 90.9403C109.973 90.279 109.576 89.9435 108.964 89.7723Z" fill="white"/>
<path d="M73.4 88.2451C75.6632 88.1701 76.66 89.1015 76.6881 91.3506C76.7045 92.5584 76.7213 93.7711 76.6744 94.9766C76.6582 95.4245 77.0017 96.0524 76.3053 96.2939C75.541 96.5563 75.3181 95.9284 75.0485 95.3398C74.2629 96.1605 73.379 96.5289 72.2887 96.4492C70.8558 96.3437 70.1025 95.7432 69.9547 94.4814C69.7929 93.086 70.4029 92.1217 71.7819 91.7676C72.4525 91.5964 73.1725 91.6135 73.8619 91.501C74.2582 91.4353 74.8824 91.7656 74.9342 90.9805C74.9811 90.2511 74.6522 89.7788 73.9323 89.624C73.2991 89.4881 72.6796 89.6264 72.1051 89.875C71.5447 90.1165 71.1861 90.0839 70.9469 89.4414C70.6445 88.6255 71.3385 88.7704 71.6949 88.6133C72.2343 88.3764 72.8091 88.2662 73.4 88.2451ZM74.2946 92.6123C72.6532 92.596 71.6543 93.1261 71.6754 94.0195C71.6967 94.8612 72.2528 95.1592 73.0055 95.1709C74.1262 95.1895 74.9327 94.3616 74.9352 93.2666C74.9375 92.7741 74.8058 92.5068 74.2946 92.6123Z" fill="white"/>
<path d="M187.992 88.2402C190.13 88.2567 190.957 89.0584 190.993 91.1757C191.002 91.7994 190.996 92.4235 190.996 93.0449H191.012C191.012 93.9031 191.019 94.7593 191.007 95.6152C191.003 95.9059 191.103 96.2951 190.663 96.3632C190.33 96.4125 189.908 96.4995 189.767 96.0517C189.523 95.2778 189.215 95.6085 188.8 95.9111C187.759 96.6732 186.593 96.6127 185.465 96.1835C184.654 95.874 184.373 95.1231 184.326 94.2929C184.255 93.0429 184.889 92.1146 186.148 91.791C186.819 91.6174 187.536 91.622 188.223 91.5048C188.657 91.4321 189.347 91.7529 189.359 90.9042C189.371 90.1093 188.925 89.6874 188.156 89.6005C187.558 89.5325 186.988 89.7153 186.439 89.8935C185.85 90.0811 185.479 90.0336 185.308 89.3652C185.13 88.6668 185.714 88.7562 186.054 88.6132C186.671 88.3552 187.321 88.2355 187.992 88.2402ZM188.649 92.5947C187.092 92.5595 186.116 93.0969 186.123 94.0185C186.127 94.8626 186.699 95.1444 187.426 95.1796C188.505 95.2312 189.352 94.3987 189.362 93.3154C189.367 92.6518 189.326 92.6111 188.649 92.5947Z" fill="white"/>
<path d="M99.5126 88.2405C101.832 88.2195 103.281 89.789 103.276 92.3147C103.271 95.0161 102.005 96.4487 99.6269 96.4417C97.1975 96.4345 95.7974 94.9102 95.8115 92.2883C95.8256 89.8096 97.2425 88.2592 99.5126 88.2405ZM99.5273 89.6506C98.2468 89.6811 97.4612 90.7605 97.5058 92.428C97.5505 94.1091 98.2679 95.0357 99.5458 95.0569C100.847 95.078 101.612 94.0761 101.612 92.3547C101.612 90.6404 100.824 89.6202 99.5273 89.6506Z" fill="white"/>
<path d="M134.016 88.2418C136.373 88.1972 137.921 89.7822 137.923 92.2447C137.928 94.8431 136.605 96.4048 134.375 96.44C131.882 96.4775 130.444 95.0097 130.416 92.4019C130.388 89.8716 131.762 88.2842 134.016 88.2418ZM134.1 89.6402C133.122 89.6614 132.542 90.1582 132.308 91.1548C132.104 92.0224 132.13 92.8383 132.369 93.6871C132.648 94.672 133.272 95.0904 134.269 95.0435C135.549 94.9825 136.173 94.0952 136.156 92.0689C136.128 91.8997 136.074 91.4729 135.976 91.0582C135.743 90.0782 135.07 89.6214 134.1 89.6402Z" fill="white"/>
<path d="M156.173 88.2411C158.513 88.2881 159.867 89.7891 159.846 92.3124C159.822 95.0914 158.553 96.4751 156.051 96.4423C153.762 96.4118 152.418 94.8875 152.436 92.3407C152.455 89.6859 153.816 88.1942 156.173 88.2411ZM156.072 89.6327C154.923 89.6515 154.453 90.3363 154.247 91.3846C154.083 92.2194 154.127 93.0144 154.388 93.8046C154.775 94.9842 156.246 95.4888 157.235 94.7548C158.042 94.1568 158.091 93.2302 158.176 92.2899C158.141 92.0203 158.124 91.7057 158.054 91.4032C157.782 90.1932 157.13 89.6164 156.072 89.6327Z" fill="white"/>
<path d="M117.771 88.2323C119.678 88.3777 120.424 89.1472 120.452 91.0419C120.473 92.409 120.494 93.7763 120.464 95.1434C120.454 95.5538 120.745 96.1451 120.074 96.328C119.347 96.525 119.164 95.927 118.878 95.2821C118.092 96.213 117.176 96.525 116.088 96.4384C114.817 96.3375 114.017 95.7207 113.834 94.6278C113.607 93.2771 114.136 92.3014 115.397 91.8417C116.136 91.572 116.918 91.5276 117.701 91.4784C118.093 91.4551 118.737 91.757 118.772 90.9716C118.805 90.2564 118.477 89.7638 117.75 89.6161C117.117 89.4872 116.498 89.6259 115.916 89.8651C115.426 90.0667 115.063 90.1601 114.816 89.5223C114.542 88.8095 115.02 88.7648 115.478 88.6053C116.223 88.3427 116.976 88.1713 117.771 88.2323ZM117.831 92.6151C116.326 92.6644 115.509 93.1689 115.565 94.0575C115.615 94.8807 116.18 95.1815 116.919 95.1815C117.983 95.1789 118.802 94.2521 118.785 93.2157C118.773 92.4445 118.281 92.601 117.831 92.6151Z" fill="white"/>
</svg>
